<svg xmlns="http://www.w3.org/2000/svg" viewBox="0 0 27.5 22">
    <title><?php echo $data['title'] ?></title>
    <path d="M11 13.062c0 .63-.244 1.204-.73 1.72-.487.515-1.153.93-1.999 1.245-.845.315-1.768.473-2.771.473s-1.926-.158-2.771-.473c-.846-.315-1.512-.73-1.999-1.246-.487-.515-.73-1.088-.73-1.719v-.042c0-.258.072-.545.215-.86.143-.315.63-1.289 1.46-2.922l1.977-3.996a1.93 1.93 0 0 1 .774-.816c.344-.2.702-.301 1.074-.301.372 0 .73.1 1.074.3.344.201.602.473.774.817L9.28 9.11c.86 1.72 1.36 2.743 1.504 3.073.143.329.215.608.215.838v.042zM5.5 6.187l-3.094 6.188h6.188L5.5 6.187zM22.773 7.22a.588.588 0 0 1-.343.408.713.713 0 0 1-.516.021l-5.672-1.89a3.086 3.086 0 0 1-1.46.945v14.61a.67.67 0 0 1-.194.494.67.67 0 0 1-.494.193H4.812a.67.67 0 0 1-.494-.193.67.67 0 0 1-.193-.495v-.687c0-.2.064-.365.193-.494a.67.67 0 0 1 .494-.194h7.907V6.703a3.426 3.426 0 0 1-1.612-1.096 3.192 3.192 0 0 1-.752-1.826L4.941 1.977a.652.652 0 0 1-.386-.344.652.652 0 0 1-.043-.516l.215-.644A.652.652 0 0 1 5.07.086a.652.652 0 0 1 .516-.043l5.2 1.719A3.214 3.214 0 0 1 12.01.472 3.343 3.343 0 0 1 13.75 0c.945 0 1.755.337 2.428 1.01s1.01 1.482 1.01 2.427l-.044.473 5.415 1.805c.171.057.3.172.386.344.086.171.1.343.043.515l-.215.645zM13.75 4.812c.372 0 .695-.136.967-.408.272-.272.408-.594.408-.967 0-.372-.136-.694-.408-.966a1.321 1.321 0 0 0-.967-.409c-.372 0-.695.137-.967.409a1.321 1.321 0 0 0-.408.966c0 .373.136.695.408.967.272.272.595.408.967.408zm13.75 13.75c0 .63-.244 1.204-.73 1.72-.488.515-1.154.93-1.999 1.245-.845.315-1.768.473-2.771.473s-1.926-.158-2.772-.473c-.845-.315-1.51-.73-1.998-1.246-.487-.515-.73-1.088-.73-1.719v-.043c0-.257.072-.544.215-.859.143-.315.63-1.289 1.46-2.922l1.977-3.996a1.93 1.93 0 0 1 .774-.816c.343-.2.702-.301 1.074-.301.372 0 .73.1 1.074.3.344.201.602.473.774.817l1.933 3.867c.86 1.72 1.36 2.743 1.504 3.073.143.329.215.608.215.837v.043zm-8.594-.687h6.188L22 11.687l-1.547 3.094c-.945 1.862-1.46 2.893-1.547 3.094z"
          fill-rule="nonzero"/>
</svg>
