<svg width="351" height="95" viewBox="0 0 351 95" fill="none" xmlns="http://www.w3.org/2000/svg">
    <rect width="351" height="95" fill="white"/>
    <path fill-rule="evenodd" clip-rule="evenodd"
          d="M262.832 49.1206C262.832 37.1738 256.844 27.7469 245.4 27.7469C233.908 27.7469 226.955 37.1738 226.955 49.0273C226.955 63.0742 235.163 70.1677 246.945 70.1677C252.691 70.1677 257.037 68.9077 260.321 67.1343V57.8008C257.037 59.3875 253.271 60.3675 248.49 60.3675C243.807 60.3675 239.654 58.7808 239.123 53.274H262.735C262.735 52.6674 262.832 50.2407 262.832 49.1206ZM238.978 44.6872C238.978 39.4138 242.31 37.2204 245.352 37.2204C248.297 37.2204 251.436 39.4138 251.436 44.6872H238.978ZM208.316 27.7469C203.584 27.7469 200.542 29.8936 198.852 31.387L198.224 28.4936H187.601V82.9079L199.673 80.4345L199.721 67.2276C201.459 68.441 204.019 70.1677 208.268 70.1677C216.911 70.1677 224.782 63.4476 224.782 48.654C224.733 35.1204 216.766 27.7469 208.316 27.7469ZM205.419 59.9008C202.57 59.9008 200.88 58.9208 199.721 57.7074L199.673 40.3938C200.928 39.0405 202.666 38.1071 205.419 38.1071C209.813 38.1071 212.855 42.8672 212.855 48.9806C212.855 55.2341 209.861 59.9008 205.419 59.9008ZM170.99 24.9935L183.11 22.4735V13L170.99 15.4734V24.9935ZM170.99 28.5403H183.11V69.3743H170.99V28.5403ZM158.002 31.9937L157.229 28.5403H146.799V69.3743H158.871V41.7005C161.72 38.1071 166.549 38.7605 168.045 39.2738V28.5403C166.5 27.9803 160.851 26.9536 158.002 31.9937ZM133.858 18.4134L122.076 20.8401L122.028 58.2208C122.028 65.1276 127.388 70.2143 134.534 70.2143C138.494 70.2143 141.391 69.5143 142.984 68.6743V59.2008C141.439 59.8075 133.81 61.9542 133.81 55.0474V38.4804H142.984V28.5403H133.81L133.858 18.4134ZM101.217 40.3938C101.217 38.5738 102.762 37.8738 105.321 37.8738C108.991 37.8738 113.626 38.9471 117.296 40.8605V29.8936C113.288 28.3536 109.329 27.7469 105.321 27.7469C95.5187 27.7469 89 32.6937 89 40.9538C89 53.834 107.349 51.7807 107.349 57.3341C107.349 59.4808 105.417 60.1808 102.713 60.1808C98.7056 60.1808 93.5872 58.5941 89.5312 56.4474V67.5543C94.0218 69.421 98.5607 70.2143 102.713 70.2143C112.757 70.2143 119.662 65.4076 119.662 57.0541C119.614 43.1472 101.217 45.6206 101.217 40.3938Z"
          fill="#635BFF"/>
</svg>
