<svg xmlns="http://www.w3.org/2000/svg" viewBox="0 0 25 20">
    <path d="M10 11.875c0 .573-.221 1.094-.664 1.563-.443.468-1.048.846-1.816 1.132C6.75 14.857 5.91 15 5 15s-1.751-.143-2.52-.43c-.768-.286-1.373-.664-1.816-1.133C.221 12.97 0 12.447 0 11.876v-.04c0-.233.065-.494.195-.78.13-.287.573-1.172 1.328-2.657L3.32 4.766c.157-.313.39-.56.703-.743.313-.182.638-.273.977-.273.339 0 .664.091.977.273.312.183.546.43.703.743L8.438 8.28c.78 1.563 1.236 2.494 1.367 2.793.13.3.195.554.195.762v.039zm-5-6.25L2.187 11.25h5.626L5 5.625zm15.703.938a.534.534 0 0 1-.312.37.649.649 0 0 1-.47.02l-5.155-1.719a2.805 2.805 0 0 1-1.329.86v13.281a.608.608 0 0 1-.175.45.608.608 0 0 1-.45.175H4.376a.608.608 0 0 1-.45-.176.608.608 0 0 1-.175-.449v-.625c0-.182.059-.332.176-.45a.608.608 0 0 1 .449-.175h7.188V6.094a3.115 3.115 0 0 1-1.465-.996 2.902 2.902 0 0 1-.684-1.66L4.492 1.796a.593.593 0 0 1-.351-.313.593.593 0 0 1-.04-.468L4.298.43a.593.593 0 0 1 .312-.352.593.593 0 0 1 .47-.039l4.726 1.563c.26-.495.631-.886 1.113-1.172A3.039 3.039 0 0 1 12.5 0c.86 0 1.595.306 2.207.918a3.01 3.01 0 0 1 .918 2.207l-.04.43 4.923 1.64a.593.593 0 0 1 .351.313.593.593 0 0 1 .04.469l-.196.585zM12.5 4.374c.339 0 .632-.124.879-.371s.371-.54.371-.879c0-.339-.124-.632-.371-.879a1.201 1.201 0 0 0-.879-.371c-.339 0-.632.124-.879.371s-.371.54-.371.879c0 .339.124.632.371.879s.54.371.879.371zm12.5 12.5c0 .573-.221 1.094-.664 1.563-.443.468-1.048.846-1.816 1.132-.769.287-1.609.43-2.52.43s-1.751-.143-2.52-.43c-.768-.286-1.373-.664-1.816-1.133-.443-.468-.664-.99-.664-1.562v-.04c0-.233.065-.494.195-.78.13-.287.573-1.172 1.328-2.657l1.797-3.632c.157-.313.39-.56.703-.743.313-.182.638-.273.977-.273.339 0 .664.091.977.273.312.183.546.43.703.743l1.758 3.515c.78 1.563 1.236 2.494 1.367 2.793.13.3.195.554.195.762v.039zm-7.813-.625h5.625L20 10.625l-1.406 2.813c-.86 1.692-1.328 2.63-1.407 2.812z"
          fill-rule="nonzero" fill="#FFF"/>
</svg>
